<svg width="20" height="21" viewBox="0 0 20 21" fill="none" xmlns="http://www.w3.org/2000/svg">
<path d="M20 13V11C20 10.161 20 9.41527 19.9871 8.75H0.012902C0 9.41527 0 10.161 0 11V13C0 16.7712 0 18.6569 1.17157 19.8284C2.34315 21 4.22876 21 8 21H12C15.7712 21 17.6569 21 18.8284 19.8284C20 18.6569 20 16.7712 20 13Z" fill="black"/>
<path d="M5.75 1.5C5.75 1.08579 5.41421 0.75 5 0.75C4.58579 0.75 4.25 1.08579 4.25 1.5V3.07926C2.81067 3.19451 1.86577 3.47737 1.17157 4.17157C0.477375 4.86577 0.194513 5.81067 0.0792572 7.25H19.9207C19.8055 5.81067 19.5226 4.86577 18.8284 4.17157C18.1342 3.47737 17.1893 3.19451 15.75 3.07926V1.5C15.75 1.08579 15.4142 0.75 15 0.75C14.5858 0.75 14.25 1.08579 14.25 1.5V3.0129C13.5847 3 12.839 3 12 3H8C7.16097 3 6.41527 3 5.75 3.0129V1.5Z" fill="black"/>
</svg>
