<svg width="6" height="6" viewBox="0 0 6 6" fill="none" xmlns="http://www.w3.org/2000/svg">
<path d="M3 0.5C3.48984 0.499972 3.96889 0.643845 4.37766 0.91375C4.78643 1.18365 5.10691 1.5677 5.29928 2.01818C5.49165 2.46866 5.54745 2.96573 5.45974 3.44766C5.37203 3.92958 5.14467 4.37511 4.80591 4.72893C4.46716 5.08274 4.03192 5.32924 3.55427 5.43782C3.07661 5.54639 2.57758 5.51225 2.11917 5.33963C1.66075 5.16702 1.26314 4.86354 0.975729 4.46688C0.688315 4.07023 0.523759 3.59788 0.5025 3.1085L0.5 3L0.5025 2.8915C0.53046 2.24788 0.805804 1.63989 1.27111 1.19433C1.73642 0.748771 2.35577 0.500037 3 0.5Z" fill="black"/>
</svg>
