<svg width="26" height="26" viewBox="0 0 26 26" fill="none" xmlns="http://www.w3.org/2000/svg">
<path d="M14.875 25.36C20.8888 24.455 25.5 19.2663 25.5 13C25.5 6.09625 19.9037 0.5 13 0.5C6.09625 0.5 0.5 6.09625 0.5 13C0.5 19.2663 5.11125 24.4563 11.125 25.36V16.75H9.25C8.75272 16.75 8.27581 16.5525 7.92417 16.2008C7.57254 15.8492 7.375 15.3723 7.375 14.875C7.375 14.3777 7.57254 13.9008 7.92417 13.5492C8.27581 13.1975 8.75272 13 9.25 13H11.125V10.5C11.125 9.33968 11.5859 8.22688 12.4064 7.40641C13.2269 6.58594 14.3397 6.125 15.5 6.125H16.125C16.6223 6.125 17.0992 6.32254 17.4508 6.67417C17.8025 7.02581 18 7.50272 18 8C18 8.49728 17.8025 8.97419 17.4508 9.32583C17.0992 9.67746 16.6223 9.875 16.125 9.875H15.5C15.3342 9.875 15.1753 9.94085 15.0581 10.0581C14.9408 10.1753 14.875 10.3342 14.875 10.5V13H16.75C17.2473 13 17.7242 13.1975 18.0758 13.5492C18.4275 13.9008 18.625 14.3777 18.625 14.875C18.625 15.3723 18.4275 15.8492 18.0758 16.2008C17.7242 16.5525 17.2473 16.75 16.75 16.75H14.875V25.36Z" fill="black"/>
</svg>
