<svg width="20" height="20" viewBox="0 0 20 20" fill="none" xmlns="http://www.w3.org/2000/svg">
<path fill-rule="evenodd" clip-rule="evenodd" d="M11.0867 19.3877L11.6288 18.4718C12.0492 17.7614 12.2595 17.4062 12.5972 17.2098C12.9349 17.0134 13.36 17.0061 14.2104 16.9915C15.4658 16.9698 16.2531 16.8929 16.9134 16.6194C18.1386 16.1119 19.1119 15.1386 19.6194 13.9134C20 12.9946 20 11.8297 20 9.5V8.5C20 5.22657 20 3.58985 19.2632 2.38751C18.8509 1.71473 18.2853 1.14908 17.6125 0.736799C16.4101 0 14.7734 0 11.5 0H8.5C5.22657 0 3.58985 0 2.38751 0.736799C1.71473 1.14908 1.14908 1.71473 0.736799 2.38751C0 3.58985 0 5.22657 0 8.5V9.5C0 11.8297 0 12.9946 0.380602 13.9134C0.888072 15.1386 1.86144 16.1119 3.08658 16.6194C3.74689 16.8929 4.53422 16.9698 5.78958 16.9915C6.63992 17.0061 7.06509 17.0134 7.40279 17.2098C7.74049 17.4063 7.95073 17.7614 8.37121 18.4718L8.91331 19.3877C9.39647 20.204 10.6035 20.204 11.0867 19.3877ZM14 10C14.5523 10 15 9.55229 15 9C15 8.44771 14.5523 8 14 8C13.4477 8 13 8.44771 13 9C13 9.55229 13.4477 10 14 10ZM11 9C11 9.55229 10.5523 10 10 10C9.44771 10 9 9.55229 9 9C9 8.44771 9.44771 8 10 8C10.5523 8 11 8.44771 11 9ZM6 10C6.55228 10 7 9.55229 7 9C7 8.44771 6.55228 8 6 8C5.44772 8 5 8.44771 5 9C5 9.55229 5.44772 10 6 10Z" fill="black"/>
</svg>
