<svg width="24" height="24" viewBox="0 0 24 24" fill="none" xmlns="http://www.w3.org/2000/svg">
<path d="M13.1993 0.333374C14.5118 0.336874 15.178 0.343874 15.7532 0.360207L15.9795 0.368374C16.2408 0.377707 16.4987 0.389374 16.8102 0.403374C18.0515 0.461707 18.8985 0.657707 19.6417 0.945874C20.4117 1.24221 21.0603 1.64354 21.709 2.29104C22.3023 2.87425 22.7613 3.57973 23.0542 4.35837C23.3423 5.10154 23.5383 5.94854 23.5967 7.19104C23.6107 7.50137 23.6223 7.75921 23.6317 8.02171L23.6387 8.24804C23.6562 8.82204 23.6632 9.48821 23.6655 10.8007L23.6667 11.671V13.1994C23.6695 14.0503 23.6606 14.9013 23.6398 15.752L23.6328 15.9784C23.6235 16.2409 23.6118 16.4987 23.5978 16.809C23.5395 18.0515 23.3412 18.8974 23.0542 19.6417C22.7621 20.4208 22.303 21.1264 21.709 21.709C21.1256 22.3021 20.4202 22.7611 19.6417 23.0542C18.8985 23.3424 18.0515 23.5384 16.8102 23.5967C16.5333 23.6097 16.2565 23.6214 15.9795 23.6317L15.7532 23.6387C15.178 23.655 14.5118 23.6632 13.1993 23.6655L12.329 23.6667H10.8018C9.95048 23.6696 9.09912 23.6607 8.24801 23.6399L8.02168 23.6329C7.74472 23.6224 7.46783 23.6103 7.19101 23.5967C5.94968 23.5384 5.10268 23.3424 4.35835 23.0542C3.57979 22.7618 2.8746 22.3027 2.29218 21.709C1.6984 21.126 1.23894 20.4205 0.945845 19.6417C0.657679 18.8985 0.461679 18.0515 0.403345 16.809C0.390347 16.5322 0.37868 16.2553 0.368345 15.9784L0.362512 15.752C0.341013 14.9013 0.33129 14.0504 0.333345 13.1994V10.8007C0.330089 9.94974 0.338646 9.09877 0.359012 8.24804L0.367179 8.02171C0.376512 7.75921 0.388179 7.50137 0.402179 7.19104C0.460512 5.94854 0.656512 5.10271 0.944678 4.35837C1.23764 3.57893 1.69802 2.87323 2.29335 2.29104C2.87562 1.69776 3.58035 1.23869 4.35835 0.945874C5.10268 0.657707 5.94851 0.461707 7.19101 0.403374C7.50134 0.389374 7.76034 0.377707 8.02168 0.368374L8.24801 0.361374C9.09874 0.340646 9.94971 0.3317 10.8007 0.334541L13.1993 0.333374ZM12 6.16671C10.4529 6.16671 8.96918 6.78129 7.87522 7.87525C6.78126 8.96921 6.16668 10.4529 6.16668 12C6.16668 13.5471 6.78126 15.0309 7.87522 16.1248C8.96918 17.2188 10.4529 17.8334 12 17.8334C13.5471 17.8334 15.0308 17.2188 16.1248 16.1248C17.2188 15.0309 17.8333 13.5471 17.8333 12C17.8333 10.4529 17.2188 8.96921 16.1248 7.87525C15.0308 6.78129 13.5471 6.16671 12 6.16671ZM12 8.50004C12.4596 8.49996 12.9148 8.59042 13.3394 8.76624C13.7641 8.94206 14.15 9.1998 14.4751 9.52475C14.8001 9.8497 15.058 10.2355 15.2339 10.6601C15.4099 11.0847 15.5005 11.5398 15.5006 11.9995C15.5007 12.4591 15.4102 12.9142 15.2344 13.3389C15.0586 13.7636 14.8008 14.1494 14.4759 14.4745C14.1509 14.7996 13.7651 15.0574 13.3405 15.2334C12.9159 15.4094 12.4608 15.5 12.0012 15.5C11.0729 15.5 10.1827 15.1313 9.5263 14.4749C8.86993 13.8185 8.50118 12.9283 8.50118 12C8.50118 11.0718 8.86993 10.1815 9.5263 9.52517C10.1827 8.86879 11.0729 8.50004 12.0012 8.50004M18.1262 4.41671C17.7394 4.41671 17.3685 4.57035 17.095 4.84384C16.8215 5.11733 16.6678 5.48827 16.6678 5.87504C16.6678 6.26181 16.8215 6.63275 17.095 6.90624C17.3685 7.17973 17.7394 7.33337 18.1262 7.33337C18.513 7.33337 18.8839 7.17973 19.1574 6.90624C19.4309 6.63275 19.5845 6.26181 19.5845 5.87504C19.5845 5.48827 19.4309 5.11733 19.1574 4.84384C18.8839 4.57035 18.513 4.41671 18.1262 4.41671Z" fill="black"/>
</svg>
