<svg width="40" height="40" viewBox="0 0 40 40" fill="none" xmlns="http://www.w3.org/2000/svg">
<path fill-rule="evenodd" clip-rule="evenodd" d="M20 36.6667C27.3638 36.6667 33.3334 30.6971 33.3334 23.3333C33.3334 15.9695 27.3638 10 20 10C12.6362 10 6.66669 15.9695 6.66669 23.3333C6.66669 30.6971 12.6362 36.6667 20 36.6667ZM20 18.3333C19.5266 18.3333 19.2099 18.9014 18.5766 20.0375L18.4128 20.3315C18.2328 20.6543 18.1428 20.8157 18.0025 20.9222C17.8622 21.0287 17.6874 21.0683 17.338 21.1474L17.0198 21.2193C15.7899 21.4976 15.175 21.6367 15.0287 22.1072C14.8824 22.5777 15.3016 23.0679 16.1401 24.0483L16.357 24.3019C16.5952 24.5806 16.7144 24.7199 16.768 24.8922C16.8215 25.0645 16.8035 25.2504 16.7675 25.6221L16.7347 25.9605C16.608 27.2686 16.5446 27.9227 16.9276 28.2134C17.3106 28.5042 17.8864 28.2391 19.0379 27.7089L19.3358 27.5718C19.663 27.4211 19.8266 27.3458 20 27.3458C20.1734 27.3458 20.3371 27.4211 20.6643 27.5718L20.9622 27.7089C22.1137 28.2391 22.6894 28.5042 23.0724 28.2134C23.4555 27.9227 23.3921 27.2686 23.2653 25.9605L23.2325 25.6221C23.1965 25.2504 23.1785 25.0645 23.2321 24.8922C23.2857 24.7199 23.4048 24.5806 23.643 24.302L23.86 24.0483C24.6984 23.0679 25.1176 22.5777 24.9713 22.1072C24.825 21.6367 24.2101 21.4976 22.9803 21.2193L22.6621 21.1474C22.3126 21.0683 22.1379 21.0287 21.9975 20.9222C21.8572 20.8157 21.7673 20.6543 21.5873 20.3314L21.4234 20.0375C20.7901 18.9014 20.4735 18.3333 20 18.3333Z" fill="#CECDD2"/>
<path d="M18.3334 3.33331H21.6667C24.8094 3.33331 26.3807 3.33331 27.357 4.30962C28.3196 5.27215 28.3332 6.81304 28.3333 9.86784C25.9129 8.36669 23.0577 7.49998 20 7.49998C16.9424 7.49998 14.0872 8.36669 11.6667 9.86784C11.6669 6.81304 11.6805 5.27215 12.643 4.30962C13.6193 3.33331 15.1907 3.33331 18.3334 3.33331Z" fill="#176CC7"/>
</svg>
