<svg width="16" height="16" viewBox="0 0 16 16" fill="#c5c5c5" xmlns="http://www.w3.org/2000/svg">
<g clip-path="url(#clip0_2023_71)">
<path d="M5.49536 4.89333L1.24203 5.50999L1.16669 5.52533C1.05265 5.5556 0.94869 5.6156 0.865422 5.6992C0.782153 5.78279 0.722563 5.88699 0.692735 6.00115C0.662908 6.1153 0.663912 6.23533 0.695645 6.34898C0.727379 6.46262 0.788705 6.5658 0.87336 6.64799L3.95469 9.64733L3.22803 13.884L3.21936 13.9573C3.21238 14.0753 3.23687 14.193 3.29033 14.2983C3.34378 14.4037 3.42428 14.493 3.52358 14.557C3.62289 14.621 3.73742 14.6575 3.85546 14.6627C3.9735 14.6679 4.0908 14.6417 4.19536 14.5867L7.99936 12.5867L11.7947 14.5867L11.8614 14.6173C11.9714 14.6607 12.091 14.674 12.2079 14.6558C12.3247 14.6377 12.4347 14.5888 12.5264 14.5142C12.6182 14.4395 12.6884 14.3418 12.7299 14.2311C12.7714 14.1203 12.7827 14.0006 12.7627 13.884L12.0354 9.64733L15.118 6.64733L15.17 6.59066C15.2443 6.49917 15.293 6.38963 15.3112 6.27319C15.3293 6.15675 15.3163 6.03758 15.2734 5.92781C15.2305 5.81805 15.1593 5.72162 15.067 5.64834C14.9747 5.57506 14.8647 5.52755 14.748 5.51066L10.4947 4.89333L8.59336 1.03999C8.53834 0.92835 8.45317 0.834337 8.34749 0.768597C8.2418 0.702857 8.11982 0.668015 7.99536 0.668015C7.8709 0.668015 7.74892 0.702857 7.64323 0.768597C7.53755 0.834337 7.45238 0.92835 7.39736 1.03999L5.49536 4.89333Z" fill="#c5c5c5"/>
</g>
<defs>
<clipPath id="clip0_2023_71">
<rect width="16" height="16" fill="#c5c5c5"/>
</clipPath>
</defs>
</svg>
