<svg width="25" height="25" viewBox="0 0 25 25" fill="none" xmlns="http://www.w3.org/2000/svg">
<path d="M12.5 0.416626C5.83 0.416626 0.416672 5.82996 0.416672 12.5C0.416672 19.17 5.83 24.5833 12.5 24.5833C19.17 24.5833 24.5833 19.17 24.5833 12.5C24.5833 5.82996 19.17 0.416626 12.5 0.416626ZM18.1067 8.63329C17.9254 10.5425 17.14 15.1825 16.7413 17.3212C16.5721 18.2275 16.2338 18.5295 15.9196 18.5658C15.2188 18.6262 14.6871 18.1066 14.0104 17.6595C12.9471 16.9587 12.3429 16.5237 11.3158 15.847C10.1196 15.0616 10.8929 14.6266 11.5817 13.9258C11.7629 13.7445 14.8563 10.9291 14.9167 10.6754C14.9251 10.6369 14.9239 10.597 14.9134 10.5591C14.9029 10.5212 14.8833 10.4865 14.8563 10.4579C14.7838 10.3975 14.6871 10.4216 14.6025 10.4337C14.4938 10.4579 12.8021 11.5816 9.50334 13.805C9.02001 14.1312 8.585 14.3004 8.19834 14.2883C7.76334 14.2762 6.94167 14.0466 6.32542 13.8412C5.56417 13.5995 4.97209 13.4666 5.02042 13.0437C5.04459 12.8262 5.34667 12.6087 5.91459 12.3791C9.44292 10.8445 11.7871 9.82954 12.9592 9.34621C16.3183 7.94454 17.0071 7.70288 17.4663 7.70288C17.5629 7.70288 17.7925 7.72704 17.9375 7.84788C18.0583 7.94454 18.0946 8.07746 18.1067 8.17413C18.0946 8.24663 18.1188 8.46413 18.1067 8.63329Z" fill="black"/>
</svg>
