<svg width="18" height="18" viewBox="0 0 18 18" fill="none" xmlns="http://www.w3.org/2000/svg">
<path d="M17.3333 9C17.3333 13.6024 13.6024 17.3333 8.99999 17.3333C4.39762 17.3333 0.666656 13.6024 0.666656 9C0.666656 4.39763 4.39762 0.666672 8.99999 0.666672C13.6024 0.666672 17.3333 4.39763 17.3333 9Z" fill="black"/>
<path fill-rule="evenodd" clip-rule="evenodd" d="M8.99999 5.04167C9.34517 5.04167 9.62499 5.32149 9.62499 5.66667V8.74112L11.5253 10.6414C11.7693 10.8855 11.7693 11.2812 11.5253 11.5253C11.2812 11.7694 10.8855 11.7694 10.6414 11.5253L8.55805 9.44195C8.44084 9.32474 8.37499 9.16576 8.37499 9V5.66667C8.37499 5.32149 8.65481 5.04167 8.99999 5.04167Z" fill="white"/>
</svg>
